<svg xmlns="http://www.w3.org/2000/svg" xmlns:xlink="http://www.w3.org/1999/xlink" width="40" zoomAndPan="magnify" viewBox="0 0 30 30.000001" height="40" preserveAspectRatio="xMidYMid meet" version="1.0"><defs><clipPath id="e55049dc7d"><path d="M 5.792969 21 L 23.9375 21 L 23.9375 28.941406 L 5.792969 28.941406 Z M 5.792969 21 " clip-rule="nonzero"/></clipPath></defs><path fill="#c8c8c8" d="M 15.035156 8.003906 C 14.476562 8.003906 14.023438 8.457031 14.023438 9.019531 L 14.023438 19.875 L 11.652344 17.503906 C 10.699219 16.578125 9.292969 17.976562 10.21875 18.933594 C 10.21875 18.933594 14.316406 23.03125 14.316406 23.03125 C 14.699219 23.429688 15.367188 23.414062 15.75 23.03125 C 15.75 23.03125 19.847656 18.933594 19.847656 18.933594 C 20.769531 17.976562 19.375 16.578125 18.417969 17.503906 C 18.417969 17.503906 16.046875 19.875 16.046875 19.875 L 16.046875 9.019531 C 16.046875 8.457031 15.59375 8.003906 15.035156 8.003906 Z M 15.035156 8.003906 " fill-opacity="1" fill-rule="nonzero"/><g clip-path="url(#e55049dc7d)"><path fill="#c8c8c8" d="M 6.835938 21.304688 C 6.277344 21.304688 5.824219 21.757812 5.824219 22.316406 L 5.824219 23.808594 C 5.824219 26.625 8.117188 28.917969 10.933594 28.917969 L 19.132812 28.917969 C 21.949219 28.917969 24.242188 26.625 24.242188 23.808594 L 24.242188 22.316406 C 24.242188 21.757812 23.789062 21.304688 23.230469 21.304688 C 22.671875 21.304688 22.21875 21.757812 22.21875 22.316406 L 22.21875 23.808594 C 22.21875 25.511719 20.832031 26.894531 19.132812 26.894531 L 10.933594 26.894531 C 9.234375 26.894531 7.847656 25.511719 7.847656 23.808594 L 7.847656 22.316406 C 7.847656 21.757812 7.394531 21.304688 6.835938 21.304688 Z M 6.835938 21.304688 " fill-opacity="1" fill-rule="nonzero"/></g></svg>